<?xml version="1.0" encoding="UTF-8" standalone="no"?>
<!DOCTYPE svg PUBLIC "-//W3C//DTD SVG 1.1//EN" "http://www.w3.org/Graphics/SVG/1.1/DTD/svg11.dtd">
<svg width="100%" height="100%" viewBox="0 0 120 120" version="1.1" xmlns="http://www.w3.org/2000/svg" xmlns:xlink="http://www.w3.org/1999/xlink" xml:space="preserve" xmlns:serif="http://www.serif.com/" style="fill-rule:evenodd;clip-rule:evenodd;stroke-linejoin:round;stroke-miterlimit:2;">
    <path d="M120,7.5L120,112.5C120,116.639 116.639,120 112.5,120L7.5,120C3.361,120 0,116.639 0,112.5L0,7.5C0,3.361 3.361,0 7.5,0L112.5,0C116.639,0 120,3.361 120,7.5Z" style="fill:url(#_Linear1);"/>
    <g id="Comentec-Logo-2025" serif:id="Comentec Logo 2025" transform="matrix(0.254904,0,0,0.254904,-372.30652,-66.012683)">
        <g transform="matrix(2.361351,0,0,2.361351,-2083.995045,-304.009413)">
            <g transform="matrix(0.880012,0,0,0.880012,709.885287,-174.750555)">
                <path d="M1049.976,635.798C1039.168,635.798 1029.745,633.519 1021.704,628.962C1013.664,624.405 1007.43,618.041 1003.003,609.87C998.576,601.7 996.362,592.211 996.362,581.404C996.362,570.596 998.576,561.107 1003.003,552.937C1007.43,544.766 1013.664,538.386 1021.704,533.796C1029.745,529.206 1039.168,526.911 1049.976,526.911C1057.137,526.911 1063.696,527.937 1069.653,529.988C1075.61,532.038 1080.803,534.919 1085.23,538.63C1089.657,542.341 1093.189,546.752 1095.825,551.863C1098.462,556.973 1100.008,562.654 1100.464,568.904L1068.335,570.075C1067.944,567.536 1067.277,565.241 1066.333,563.191C1065.389,561.14 1064.168,559.398 1062.671,557.966C1061.174,556.534 1059.4,555.427 1057.349,554.646C1055.298,553.864 1053.036,553.474 1050.562,553.474C1046.33,553.474 1042.717,554.597 1039.722,556.843C1036.727,559.089 1034.448,562.295 1032.886,566.462C1031.323,570.629 1030.542,575.609 1030.542,581.404C1030.542,587.133 1031.323,592.097 1032.886,596.296C1034.448,600.495 1036.743,603.718 1039.771,605.964C1042.798,608.21 1046.395,609.333 1050.562,609.333C1053.036,609.333 1055.298,608.943 1057.349,608.161C1059.4,607.38 1061.174,606.257 1062.671,604.792C1064.168,603.327 1065.389,601.537 1066.333,599.421C1067.277,597.305 1067.912,594.945 1068.237,592.341L1100.464,593.415C1100.138,599.73 1098.69,605.46 1096.118,610.603C1093.547,615.746 1090.031,620.206 1085.571,623.982C1081.112,627.758 1075.871,630.671 1069.849,632.722C1063.827,634.773 1057.202,635.798 1049.976,635.798Z" style="fill:rgb(248,249,250);fill-rule:nonzero;"/>
            </g>
            <g transform="matrix(-4.166667,0,0,4.166667,1598.65,217.869749)">
                <rect x="9.252" y="23.946" width="9.252" height="9.252" style="fill:rgb(248,249,250);"/>
            </g>
        </g>
    </g>
    <defs>
        <linearGradient id="_Linear1" x1="0" y1="0" x2="1" y2="0" gradientUnits="userSpaceOnUse" gradientTransform="matrix(120,120,-120,120,0,0)"><stop offset="0" style="stop-color:rgb(196,42,49);stop-opacity:1"/><stop offset="1" style="stop-color:rgb(134,49,53);stop-opacity:1"/></linearGradient>
    </defs>
</svg>
